<?xml version="1.0" encoding="UTF-8"?>
<!DOCTYPE svg PUBLIC "-//W3C//DTD SVG 1.1//EN" "http://www.w3.org/Graphics/SVG/1.1/DTD/svg11.dtd">
<svg xmlns="http://www.w3.org/2000/svg" version="1.1" width="500px" height="500px" style="shape-rendering:geometricPrecision; text-rendering:geometricPrecision; image-rendering:optimizeQuality; fill-rule:evenodd; clip-rule:evenodd" xmlns:xlink="http://www.w3.org/1999/xlink">
<g><path style="opacity:0.968" fill="#2a4f99" d="M 214.5,12.5 C 219.544,12.1725 224.544,12.5059 229.5,13.5C 208.778,23.3619 189.112,35.0285 170.5,48.5C 130.139,80.6852 103.306,121.685 90,171.5C 76.5164,238.596 95.0164,294.762 145.5,340C 196.634,375.808 250.967,381.475 308.5,357C 361.965,329.209 388.298,285.209 387.5,225C 384.533,215.426 379.7,206.926 373,199.5C 378.212,220.442 373.379,238.609 358.5,254C 339.485,265.233 320.485,265.233 301.5,254C 290.87,246.242 285.37,235.742 285,222.5C 280.013,182.893 295.846,155.727 332.5,141C 352.315,134.212 372.649,132.546 393.5,136C 418.273,139.764 439.106,150.93 456,169.5C 466.573,181.317 474.573,194.65 480,209.5C 495.376,309.966 461.876,389.3 379.5,447.5C 302.266,494.42 222.6,498.92 140.5,461C 71.0198,423.172 28.8531,365.339 14,287.5C 1.8759,183.103 39.3759,102.103 126.5,44.5C 154.207,28.614 183.541,17.9473 214.5,12.5 Z"/></g>
<g><path style="opacity:0.963" fill="#2c9eda" d="M 280.5,22.5 C 326,21.6914 366,35.858 400.5,65C 423.82,85.9743 442.987,110.141 458,137.5C 459.09,140.939 460.256,144.273 461.5,147.5C 459.345,147.628 457.345,147.128 455.5,146C 434.223,127.118 409.223,116.784 380.5,115C 361.317,112.725 342.984,115.392 325.5,123C 323.833,123.667 322.167,123.667 320.5,123C 314.151,112.132 306.484,102.298 297.5,93.5C 298.622,112.892 292.289,129.226 278.5,142.5C 260.058,151.995 241.724,151.828 223.5,142C 210.639,130.262 204.639,115.595 205.5,98C 205.627,71.0716 216.96,50.4049 239.5,36C 246.928,31.9521 254.595,28.4521 262.5,25.5C 263.086,25.7093 263.586,26.0426 264,26.5C 269.584,25.1161 275.084,23.7828 280.5,22.5 Z"/></g>
<g><path style="opacity:0.952" fill="#2c9eda" d="M 107.5,182.5 C 110.28,193.477 113.78,204.477 118,215.5C 136.062,253.875 166.229,275.708 208.5,281C 235.311,282.91 260.144,277.076 283,263.5C 289.053,267.447 295.22,271.28 301.5,275C 319.235,282.289 336.901,282.289 354.5,275C 358.639,272.361 362.639,269.528 366.5,266.5C 367.224,269.451 367.057,272.451 366,275.5C 350.024,307.141 325.858,330.308 293.5,345C 260.476,356.982 227.142,357.649 193.5,347C 132.453,321.598 102.286,275.765 103,209.5C 103.977,200.405 105.477,191.405 107.5,182.5 Z"/></g>
</svg>
